<svg id="instagram" xmlns="http://www.w3.org/2000/svg" width="35.557" height="35.564" viewBox="0 0 35.557 35.564">
  <path id="Path_2" data-name="Path 2" d="M35.915,10.456a13,13,0,0,0-.827-4.314,9.11,9.11,0,0,0-5.2-5.2A13.029,13.029,0,0,0,25.571.111C23.667.021,23.063,0,18.234,0S12.8.021,10.9.1A13,13,0,0,0,6.59.931,8.677,8.677,0,0,0,3.436,2.987,8.756,8.756,0,0,0,1.386,6.135,13.03,13.03,0,0,0,.56,10.449c-.09,1.9-.111,2.508-.111,7.337s.021,5.433.1,7.33A12.994,12.994,0,0,0,1.38,29.43a9.109,9.109,0,0,0,5.2,5.2,13.031,13.031,0,0,0,4.314.827c1.9.084,2.5.1,7.33.1s5.433-.021,7.33-.1a12.992,12.992,0,0,0,4.314-.827,9.1,9.1,0,0,0,5.2-5.2,13.039,13.039,0,0,0,.827-4.314c.083-1.9.1-2.5.1-7.33s-.007-5.433-.09-7.33Zm-3.2,14.52a9.748,9.748,0,0,1-.611,3.3,5.9,5.9,0,0,1-3.377,3.377,9.782,9.782,0,0,1-3.3.611c-1.876.084-2.438.1-7.184.1s-5.315-.021-7.184-.1a9.743,9.743,0,0,1-3.3-.611,5.473,5.473,0,0,1-2.042-1.327,5.529,5.529,0,0,1-1.327-2.042,9.784,9.784,0,0,1-.611-3.3c-.084-1.876-.1-2.439-.1-7.184s.021-5.315.1-7.184a9.743,9.743,0,0,1,.611-3.3A5.405,5.405,0,0,1,5.722,5.273,5.521,5.521,0,0,1,7.764,3.946a9.789,9.789,0,0,1,3.3-.611c1.876-.083,2.439-.1,7.184-.1s5.315.021,7.184.1a9.748,9.748,0,0,1,3.3.611,5.469,5.469,0,0,1,2.042,1.327A5.528,5.528,0,0,1,32.1,7.316a9.787,9.787,0,0,1,.611,3.3c.083,1.876.1,2.438.1,7.184s-.021,5.3-.1,7.177Zm0,0" transform="translate(-0.449 0)" fill="#fff"/>
  <path id="Path_3" data-name="Path 3" d="M134.085,124.5a9.136,9.136,0,1,0,9.136,9.136A9.138,9.138,0,0,0,134.085,124.5Zm0,15.062a5.926,5.926,0,1,1,5.926-5.926A5.927,5.927,0,0,1,134.085,139.562Zm0,0" transform="translate(-116.299 -115.85)" fill="#fff"/>
  <path id="Path_4" data-name="Path 4" d="M366.716,90.735a2.133,2.133,0,1,1-2.133-2.133A2.133,2.133,0,0,1,366.716,90.735Zm0,0" transform="translate(-337.3 -82.446)" fill="#fff"/>
</svg>
