<svg xmlns="http://www.w3.org/2000/svg" width="27.201" height="35.791" viewBox="0 0 27.201 35.791">
  <path id="pinterest" d="M4.259,19.45c.045-.112.493-1.834.524-1.95A12.027,12.027,0,0,1,3.9,10.2C4.546,6.1,8.9,4.078,13,4.078V4.07c5.143,0,8.993,2.865,9,7.793,0,3.857-2.32,8.956-6.288,8.956h0a5.658,5.658,0,0,1-3.679-1.273,2.818,2.818,0,0,1-.389-2.582,34.127,34.127,0,0,0,1.7-6.72,2.538,2.538,0,0,0-2.658-2.79,3.768,3.768,0,0,0-3.449,2.591,6.966,6.966,0,0,0,.041,5.08c.255.716-1.129,5.382-1.573,6.9C4.6,25.8,3.1,30.574,3.418,33.233l.311,2.559,1.564-2.049c2.164-2.832,4.4-10.159,5-11.942,1.762,2.282,5.432,2.348,5.86,2.348,5.256,0,11.215-5.219,11.046-12.482C27.048,5.3,22.386,0,14.01,0V.009C6.042.009,1.392,4.262.254,9.635-.789,14.617,1.53,18.409,4.259,19.45Zm0,0" transform="translate(0.001 -0.001)" fill="#fff"/>
</svg>
