<svg width="0" height="0" class="hidden">
  <symbol viewBox="0 0 512 512" xmlns="http://www.w3.org/2000/svg" id="email">
    <path d="M335.808 55.02L281.369 9.292C273.995 3.097 264.997 0 256 0s-17.995 3.097-25.369 9.292L176.192 55.02zM46 200.888L249.843 360.14c2.243 1.752 4.586 2.12 6.157 2.12s3.914-.368 6.156-2.12L466 200.888V105.02c0-11.046-8.954-20-20-20H66c-11.046 0-20 8.954-20 20zM380.5 225c0 8.284-6.716 15-15 15h-219c-8.284 0-15-6.716-15-15s6.716-15 15-15h219c8.284 0 15 6.716 15 15zm-92-75c8.284 0 15 6.716 15 15s-6.716 15-15 15h-142c-8.284 0-15-6.716-15-15s6.716-15 15-15zM472 512c4.104 0 8.062-.62 11.789-1.768L295.46 375.211a15.115 15.115 0 0 1-1.841-1.581l-12.994 10.151c-7.235 5.653-15.931 8.479-24.626 8.479s-17.39-2.826-24.626-8.479l-12.994-10.151c-.566.564-1.17 1.1-1.841 1.581L28.211 510.232A39.982 39.982 0 0 0 40 512zm40-308.98L318.084 354.517l189.457 135.83A39.82 39.82 0 0 0 512 472zM193.916 354.517L0 203.02V472c0 6.615 1.616 12.85 4.459 18.346z"></path>
  </symbol>
  <symbol xmlns="http://www.w3.org/2000/svg" viewBox="0 0 35.557 35.564" id="instagram">
    <path d="M35.466 10.456a13 13 0 0 0-.827-4.314 9.11 9.11 0 0 0-5.2-5.2 13.029 13.029 0 0 0-4.317-.831C23.218.021 22.614 0 17.785 0s-5.434.021-7.334.1a13 13 0 0 0-4.31.831 8.677 8.677 0 0 0-3.154 2.056 8.756 8.756 0 0 0-2.05 3.148 13.03 13.03 0 0 0-.826 4.314C.021 12.349 0 12.957 0 17.786s.021 5.433.1 7.33a12.994 12.994 0 0 0 .831 4.314 9.109 9.109 0 0 0 5.2 5.2 13.031 13.031 0 0 0 4.314.827c1.9.084 2.5.1 7.33.1s5.433-.021 7.33-.1a12.992 12.992 0 0 0 4.314-.827 9.1 9.1 0 0 0 5.2-5.2 13.039 13.039 0 0 0 .827-4.314c.083-1.9.1-2.5.1-7.33s-.007-5.433-.09-7.33zm-3.2 14.52a9.748 9.748 0 0 1-.611 3.3 5.9 5.9 0 0 1-3.377 3.377 9.782 9.782 0 0 1-3.3.611c-1.876.084-2.438.1-7.184.1s-5.315-.021-7.184-.1a9.743 9.743 0 0 1-3.3-.611 5.473 5.473 0 0 1-2.042-1.327 5.529 5.529 0 0 1-1.327-2.042 9.784 9.784 0 0 1-.611-3.3c-.084-1.876-.1-2.439-.1-7.184s.021-5.315.1-7.184a9.743 9.743 0 0 1 .611-3.3 5.405 5.405 0 0 1 1.332-2.043 5.521 5.521 0 0 1 2.042-1.327 9.789 9.789 0 0 1 3.3-.611c1.876-.083 2.439-.1 7.184-.1s5.315.021 7.184.1a9.748 9.748 0 0 1 3.3.611 5.469 5.469 0 0 1 2.042 1.327 5.528 5.528 0 0 1 1.326 2.043 9.787 9.787 0 0 1 .611 3.3c.083 1.876.1 2.438.1 7.184s-.021 5.3-.1 7.177zm0 0"
      fill="#fff"></path>
    <path d="M17.786 8.65a9.136 9.136 0 1 0 9.136 9.136 9.138 9.138 0 0 0-9.136-9.136zm0 15.062a5.926 5.926 0 1 1 5.926-5.926 5.927 5.927 0 0 1-5.926 5.926zm11.63-15.423a2.133 2.133 0 1 1-2.133-2.133 2.133 2.133 0 0 1 2.133 2.133zm0 0" fill="#fff"></path>
  </symbol>
  <symbol xmlns="http://www.w3.org/2000/svg" viewBox="0 0 313 80" id="logo">
    <text transform="translate(0 67)" fill="#fff" font-size="67" font-family="Bebas-Regular, Bebas">
      <tspan x="0" y="0">Mell Pitcher</tspan>
    </text>
  </symbol>
  <symbol xmlns="http://www.w3.org/2000/svg" viewBox="0 0 34 34" id="search">
    <path d="M33.792 31.789l-9.877-9.877a13.485 13.485 0 1 0-2 2l9.877 9.877a.708.708 0 0 0 1 0l1-1a.708.708 0 0 0 0-1zm-20.334-7.706a10.625 10.625 0 1 1 10.625-10.625 10.637 10.637 0 0 1-10.625 10.625z" fill="#fff"></path>
  </symbol>
  <symbol xmlns="http://www.w3.org/2000/svg" viewBox="0 0 43.454 35.564" id="twitter">
    <path d="M16.211 35.564a37.285 37.285 0 0 1-5.759-.457 27.027 27.027 0 0 1-7.877-2.867L0 30.833l2.787-.917c3.047-1 4.9-1.623 7.2-2.6a9.572 9.572 0 0 1-4.92-5.7l-.648-1.969.532.081a9.67 9.67 0 0 1-1.211-1.493 9.167 9.167 0 0 1-1.555-5.45l.115-1.716 1.029.4A9.617 9.617 0 0 1 2.4 8.855a9.94 9.94 0 0 1 1.057-6.692l.9-1.645 1.2 1.439A22.057 22.057 0 0 0 19.841 10a8.546 8.546 0 0 1 .519-4.54 8.5 8.5 0 0 1 3.456-3.96A10.381 10.381 0 0 1 29.84.02a9.623 9.623 0 0 1 5.915 2.44 19.857 19.857 0 0 0 2.165-.723c.475-.179 1.013-.382 1.687-.614L42.09.268l-1.619 4.623c.107-.009.217-.017.332-.022l2.651-.12-1.567 2.142c-.09.123-.113.157-.145.206-.126.19-.283.427-2.434 3.3a4.051 4.051 0 0 0-.757 2.638 24.949 24.949 0 0 1-1.361 10.032 17.757 17.757 0 0 1-4.767 7.061 21.053 21.053 0 0 1-9.979 4.825 30.722 30.722 0 0 1-6.233.611zm0 0"
      fill="#fff"></path>
  </symbol>
</svg>