<svg xmlns="http://www.w3.org/2000/svg" width="43.454" height="35.564" viewBox="0 0 43.454 35.564">
  <path id="twitter" d="M16.211,35.564a37.285,37.285,0,0,1-5.759-.457A27.027,27.027,0,0,1,2.575,32.24L0,30.833l2.787-.917c3.047-1,4.9-1.623,7.2-2.6a9.572,9.572,0,0,1-4.92-5.7l-.648-1.969.532.081a9.67,9.67,0,0,1-1.211-1.493,9.167,9.167,0,0,1-1.555-5.45L2.3,11.069l1.029.4A9.617,9.617,0,0,1,2.4,8.855,9.94,9.94,0,0,1,3.457,2.163l.9-1.645,1.2,1.439A22.057,22.057,0,0,0,19.841,10a8.546,8.546,0,0,1,.519-4.54A8.5,8.5,0,0,1,23.816,1.5,10.381,10.381,0,0,1,29.84.02a9.623,9.623,0,0,1,5.915,2.44,19.857,19.857,0,0,0,2.165-.723c.475-.179,1.013-.382,1.687-.614L42.09.268,40.471,4.891c.107-.009.217-.017.332-.022l2.651-.12L41.887,6.891c-.09.123-.113.157-.145.206-.126.19-.283.427-2.434,3.3a4.051,4.051,0,0,0-.757,2.638A24.949,24.949,0,0,1,37.19,23.067a17.757,17.757,0,0,1-4.767,7.061,21.053,21.053,0,0,1-9.979,4.825,30.722,30.722,0,0,1-6.233.611Zm0,0" transform="translate(0 0)" fill="#fff"/>
</svg>
